<?xml version="1.0" encoding="utf-8"?>
<!-- Generator: Adobe Illustrator 16.0.4, SVG Export Plug-In . SVG Version: 6.00 Build 0)  -->
<!DOCTYPE svg PUBLIC "-//W3C//DTD SVG 1.1//EN" "http://www.w3.org/Graphics/SVG/1.1/DTD/svg11.dtd">
<svg version="1.1" id="Ebene_1" xmlns="http://www.w3.org/2000/svg" xmlns:xlink="http://www.w3.org/1999/xlink" x="0px" y="0px"
	 width="680.314px" height="680.32px" viewBox="-42.518 80.785 680.314 680.32"
	 enable-background="new -42.518 80.785 680.314 680.32" xml:space="preserve">
<rect x="-42.518" y="80.785" fill="#36A9FF" stroke="#000000" stroke-width="0.8081" stroke-miterlimit="10" width="680.314" height="680.32"/>
<path fill="#FFFFFF" d="M531.501,165.825h-63.78V96.73c0-8.77-7.175-15.945-15.945-15.945h-53.148
	c-8.771,0-15.945,7.175-15.945,15.945v69.095H212.6V96.73c0-8.77-7.176-15.945-15.944-15.945h-53.15
	c-8.77,0-15.944,7.175-15.944,15.945v69.095H63.78c-35.211,0-63.78,28.568-63.78,63.78v467.72c0,35.212,28.568,63.78,63.779,63.78
	h467.722c35.212,0,63.778-28.568,63.778-63.78v-467.72C595.28,194.393,566.713,165.825,531.501,165.825L531.501,165.825z
	 M523.528,697.325H71.752c-4.385,0-7.973-3.588-7.973-7.974V293.385h467.722v395.969
	C531.501,693.737,527.912,697.325,523.528,697.325z"/>
<path fill="#FFFFFF" d="M379.558,565.331c-4.801,1.411-8.615,1.943-13.631,1.943c-41.068,0-101.375-143.517-101.375-191.284
	c0-17.582,4.159-23.451,10.037-28.482c-50.264,5.866-110.573,24.314-129.86,47.761c-4.168,5.874-6.7,15.081-6.7,26.816
	c0,74.566,79.588,243.767,135.729,243.767C299.738,665.852,343.529,623.154,379.558,565.331 M353.345,342.497
	c51.934,0,103.906,8.374,103.906,37.69c0,59.48-37.724,131.561-56.98,131.561c-34.344,0-77.082-95.528-77.082-143.292
	C323.189,346.673,331.566,342.497,353.345,342.497"/>
</svg>
