<?xml version="1.0" encoding="utf-8"?>
<!-- Generator: Adobe Illustrator 16.0.4, SVG Export Plug-In . SVG Version: 6.00 Build 0)  -->
<!DOCTYPE svg PUBLIC "-//W3C//DTD SVG 1.1//EN" "http://www.w3.org/Graphics/SVG/1.1/DTD/svg11.dtd">
<svg version="1.1" id="Ebene_1" xmlns="http://www.w3.org/2000/svg" xmlns:xlink="http://www.w3.org/1999/xlink" x="0px" y="0px"
	 width="680.314px" height="680.32px" viewBox="-42.518 80.785 680.314 680.32"
	 enable-background="new -42.518 80.785 680.314 680.32" xml:space="preserve">
<path d="M531.501,165.825h-63.78v-63.78c0-11.693-9.567-21.26-21.26-21.26H403.94c-11.692,0-21.26,9.567-21.26,21.26v63.78H212.6
	v-63.78c0-11.693-9.566-21.26-21.261-21.26h-42.52c-11.692,0-21.26,9.567-21.26,21.26v63.78H63.78
	c-35.211,0-63.78,28.568-63.78,63.78v467.72c0,35.212,28.568,63.78,63.779,63.78h467.722c35.212,0,63.778-28.568,63.778-63.78
	v-467.72C595.28,194.393,566.713,165.825,531.501,165.825z M531.501,293.385v106.301H403.94V293.385H531.501z M233.86,548.505
	v-106.3h127.561v106.3H233.86z M361.421,591.025v106.3H233.86v-106.3H361.421z M191.34,548.505H63.78v-106.3h127.56V548.505z
	 M233.86,399.686V293.385h127.561v106.301H233.86z M403.94,442.205h127.561v106.3H403.94V442.205z M191.34,293.385v106.301H63.78
	V293.385H191.34z M63.78,689.354v-98.327h127.56v106.3H71.752C67.367,697.325,63.78,693.737,63.78,689.354z M523.528,697.325H403.94
	v-106.3h127.561v98.326C531.501,693.737,527.912,697.325,523.528,697.325z"/>
</svg>
