<?xml version="1.0" encoding="utf-8"?>
<!-- Generator: Adobe Illustrator 16.0.4, SVG Export Plug-In . SVG Version: 6.00 Build 0)  -->
<!DOCTYPE svg PUBLIC "-//W3C//DTD SVG 1.1//EN" "http://www.w3.org/Graphics/SVG/1.1/DTD/svg11.dtd">
<svg version="1.1" id="Ebene_1" xmlns="http://www.w3.org/2000/svg" xmlns:xlink="http://www.w3.org/1999/xlink" x="0px" y="0px"
	 width="680.314px" height="680.32px" viewBox="-42.417 80.785 680.314 680.32"
	 enable-background="new -42.417 80.785 680.314 680.32" xml:space="preserve">
<path d="M297.64,420.945c93.942,0,170.08-76.138,170.08-170.08c0-93.943-76.138-170.08-170.08-170.08s-170.08,76.137-170.08,170.08
	C127.56,344.808,203.698,420.945,297.64,420.945z M416.696,463.465h-22.188c-29.499,13.554-62.318,21.26-96.866,21.26
	c-34.547,0-67.234-7.706-96.865-21.26h-22.19C79.99,463.465,0,543.456,0,642.049v55.276c0,35.212,28.568,63.78,63.779,63.78h467.722
	c35.212,0,63.778-28.568,63.778-63.78v-55.276C595.28,543.456,515.289,463.465,416.696,463.465L416.696,463.465z"/>
<g>
	<path d="M593.648,761.105H415.819c-24.399,0-44.25-19.851-44.25-44.25V539.027c0-24.399,19.851-44.25,44.25-44.25h4.25v-6.271
		c0-14.37,11.691-26.062,26.062-26.062h20.207c14.37,0,26.062,11.691,26.062,26.062v6.271h24.665v-6.271
		c0-14.37,11.691-26.062,26.062-26.062h20.208c14.37,0,26.062,11.691,26.062,26.062v6.271h4.249
		c24.396,0,44.247,19.85,44.251,44.247v177.831C637.897,741.255,618.048,761.105,593.648,761.105z"/>
	<path fill="#FFFFFF" d="M593.646,514.777h-24.249v-26.271c0-3.335-2.729-6.062-6.062-6.062h-20.208
		c-3.335,0-6.062,2.728-6.062,6.062v26.271H472.4v-26.271c0-3.335-2.728-6.062-6.062-6.062h-20.207
		c-3.335,0-6.062,2.728-6.062,6.062v26.271h-24.25c-13.388,0-24.25,10.861-24.25,24.25v177.828c0,13.388,10.862,24.25,24.25,24.25
		h177.829c13.388,0,24.249-10.862,24.249-24.25V539.027C617.895,525.64,607.033,514.777,593.646,514.777L593.646,514.777z
		 M590.614,716.855H418.848c-1.672-0.006-3.026-1.359-3.031-3.031V563.276h177.829v150.549
		C593.641,715.497,592.287,716.851,590.614,716.855L590.614,716.855z"/>
</g>
</svg>
