<?xml version="1.0" encoding="utf-8"?>
<!-- Generator: Adobe Illustrator 16.0.4, SVG Export Plug-In . SVG Version: 6.00 Build 0)  -->
<!DOCTYPE svg PUBLIC "-//W3C//DTD SVG 1.1//EN" "http://www.w3.org/Graphics/SVG/1.1/DTD/svg11.dtd">
<svg version="1.1" id="Ebene_1" xmlns="http://www.w3.org/2000/svg" xmlns:xlink="http://www.w3.org/1999/xlink" x="0px" y="0px"
	 width="680.314px" height="680.32px" viewBox="-42.518 80.785 680.314 680.32"
	 enable-background="new -42.518 80.785 680.314 680.32" xml:space="preserve">
<path d="M531.501,165.825h-63.778V96.73c0-8.77-7.175-15.945-15.945-15.945h-53.146c-8.771,0-15.945,7.175-15.945,15.945v69.095
	H212.6V96.73c0-8.77-7.178-15.945-15.944-15.945h-53.15c-8.77,0-15.942,7.175-15.942,15.945v69.095H63.78
	c-35.211,0-63.78,28.568-63.78,63.78v467.72c0,35.212,28.568,63.78,63.779,63.78h467.722c35.214,0,63.778-28.568,63.778-63.78
	v-467.72C595.28,194.393,566.715,165.825,531.501,165.825L531.501,165.825z M523.528,697.325H71.752
	c-4.385,0-7.973-3.588-7.973-7.976V293.385h467.722v395.969C531.501,693.737,527.912,697.325,523.528,697.325z"/>
<path d="M114.755,621.501v-31.905c15.442-14.434,29.562-27.918,42.353-40.451c12.783-12.532,23.798-24.31,33.044-35.321
	c9.241-11.018,16.457-21.271,21.648-30.769c5.188-9.494,7.787-18.546,7.787-27.158c0-11.896-3.039-20.945-9.114-27.155
	c-6.077-6.2-14.436-9.304-25.069-9.304c-8.866,0-16.712,2.467-23.549,7.405c-6.836,4.938-13.293,10.7-19.371,17.282l-30.386-30.005
	c11.897-12.659,24.053-22.22,36.463-28.677c12.401-6.459,27.216-9.686,44.438-9.686c11.898,0,22.726,1.84,32.476,5.506
	c9.744,3.674,18.167,8.868,25.259,15.573c7.087,6.712,12.534,14.754,16.333,24.118c3.798,9.372,5.697,19.881,5.697,31.523
	c0,10.133-2.154,20.452-6.457,30.957c-4.31,10.512-10.066,21.021-17.282,31.524c-7.217,10.511-15.448,21.021-24.688,31.524
	c-9.291,10.562-18.853,20.886-28.676,30.957c6.078-0.763,12.849-1.455,20.32-2.092c7.466-0.628,14.11-0.947,19.939-0.947h48.618
	v47.099H114.755L114.755,621.501z M393.548,626.058c-19.752,0-36.467-3.104-50.14-9.307c-13.674-6.199-24.942-14.491-33.804-24.876
	l25.827-35.323c7.342,7.091,15.383,12.913,24.119,17.473c8.734,4.558,18.29,6.837,28.676,6.837c11.897,0,21.395-2.472,28.487-7.407
	c7.086-4.938,10.636-11.964,10.636-21.079c0-5.317-0.95-10.125-2.852-14.434c-1.896-4.305-5.259-7.911-10.062-10.825
	c-4.814-2.909-11.396-5.188-19.751-6.837c-8.357-1.646-19.122-2.472-32.286-2.472v-39.5c10.885,0,19.942-0.76,27.158-2.277
	c7.217-1.521,13.039-3.732,17.472-6.646c4.428-2.908,7.596-6.326,9.495-10.255c1.898-3.924,2.85-8.291,2.85-13.104
	c0-8.355-2.533-14.872-7.597-19.562c-5.068-4.682-12.41-7.025-22.03-7.025c-8.609,0-16.396,1.899-23.356,5.697
	c-6.971,3.798-14.244,8.99-21.84,15.572l-28.107-34.184c11.14-9.621,22.85-17.151,35.134-22.601
	c12.28-5.442,25.889-8.165,40.83-8.165c12.405,0,23.739,1.46,33.995,4.367c10.254,2.914,18.99,7.217,26.207,12.914
	s12.849,12.6,16.903,20.701c4.047,8.105,6.077,17.471,6.077,28.105c0,12.664-3.484,23.358-10.446,32.097
	c-6.966,8.733-16.901,15.895-29.815,21.46v1.519c13.922,4.056,25.383,10.955,34.373,20.701c8.986,9.751,13.484,22.476,13.484,38.172
	c0,11.146-2.409,21.08-7.216,29.816c-4.813,8.732-11.271,16.084-19.371,22.027c-8.107,5.953-17.604,10.513-28.487,13.675
	C417.219,624.473,405.7,626.058,393.548,626.058L393.548,626.058z"/>
</svg>
