<?xml version="1.0" encoding="utf-8"?>
<!-- Generator: Adobe Illustrator 16.0.4, SVG Export Plug-In . SVG Version: 6.00 Build 0)  -->
<!DOCTYPE svg PUBLIC "-//W3C//DTD SVG 1.1//EN" "http://www.w3.org/Graphics/SVG/1.1/DTD/svg11.dtd">
<svg version="1.1" id="Ebene_1" xmlns="http://www.w3.org/2000/svg" xmlns:xlink="http://www.w3.org/1999/xlink" x="0px" y="0px"
	 width="680.314px" height="680.314px" viewBox="-42.517 123.305 680.314 680.314"
	 enable-background="new -42.517 123.305 680.314 680.314" xml:space="preserve">
<path d="M564.906,123.305H30.373c-40.256,0-72.89,32.634-72.89,72.891v534.533c0,40.257,32.634,72.891,72.89,72.891h534.533
	c40.257,0,72.89-32.634,72.89-72.891V196.196C637.796,155.939,605.163,123.305,564.906,123.305z M564.906,730.729H30.373V196.196
	h534.533V730.729z M510.445,363.656L248.358,623.64c-7.144,7.087-18.683,7.041-25.77-0.103L84.732,484.563
	c-7.087-7.145-7.042-18.683,0.105-25.771l34.5-34.223c7.145-7.087,18.683-7.042,25.77,0.105l90.798,91.534l214.651-212.927
	c7.146-7.087,18.683-7.042,25.77,0.103l34.223,34.499C517.635,345.032,517.59,356.569,510.445,363.656L510.445,363.656z"/>
<g>
	<path d="M593.548,803.619H415.719c-24.399,0-44.25-19.853-44.25-44.25V581.541c0-24.4,19.851-44.251,44.25-44.251h4.25v-6.271
		c0-14.368,11.69-26.062,26.062-26.062h20.207c14.37,0,26.062,11.691,26.062,26.062v6.271h24.665v-6.271
		c0-14.368,11.69-26.062,26.062-26.062h20.208c14.37,0,26.062,11.691,26.062,26.062v6.271h4.249
		c24.396,0,44.247,19.85,44.251,44.247v177.832C637.797,783.768,617.948,803.619,593.548,803.619z"/>
	<path fill="#FFFFFF" d="M593.546,557.291h-24.249V531.02c0-3.334-2.729-6.062-6.062-6.062h-20.208
		c-3.335,0-6.062,2.728-6.062,6.062v26.271H472.3V531.02c0-3.334-2.729-6.062-6.062-6.062h-20.207c-3.335,0-6.062,2.728-6.062,6.062
		v26.271h-24.25c-13.389,0-24.25,10.86-24.25,24.25v177.828c0,13.387,10.861,24.25,24.25,24.25h177.829
		c13.388,0,24.249-10.863,24.249-24.25V581.541C617.795,568.152,606.933,557.291,593.546,557.291L593.546,557.291z M590.514,759.369
		H418.747c-1.672-0.007-3.025-1.359-3.03-3.031V605.789h177.829v150.549C593.541,758.01,592.187,759.363,590.514,759.369
		L590.514,759.369z"/>
</g>
</svg>
