<?xml version="1.0" encoding="utf-8"?>
<!-- Generator: Adobe Illustrator 16.0.4, SVG Export Plug-In . SVG Version: 6.00 Build 0)  -->
<!DOCTYPE svg PUBLIC "-//W3C//DTD SVG 1.1//EN" "http://www.w3.org/Graphics/SVG/1.1/DTD/svg11.dtd">
<svg version="1.1" id="Ebene_1" xmlns="http://www.w3.org/2000/svg" xmlns:xlink="http://www.w3.org/1999/xlink" x="0px" y="0px"
	 width="680.314px" height="680.314px" viewBox="-42.517 0 680.314 680.314" enable-background="new -42.517 0 680.314 680.314"
	 xml:space="preserve">
<path d="M633.893,382.786l-85.541,146.64c-13.545,23.223-38.406,37.504-65.292,37.504H10.661c-21.877,0-35.508-23.734-24.485-42.631
	l85.541-146.64c13.545-23.223,38.407-37.502,65.293-37.502h472.398C631.284,340.157,644.918,363.889,633.893,382.786z
	 M137.01,302.361h387.402v-56.693c0-31.31-25.382-56.692-56.692-56.692H278.742l-75.591-75.59H14.175
	c-31.311,0-56.692,25.381-56.692,56.692v328.401l81.586-139.864C59.31,323.917,96.84,302.361,137.01,302.361z"/>
<g>
	<path d="M593.548,680.314H415.719c-24.399,0-44.25-19.852-44.25-44.25V458.236c0-24.4,19.851-44.25,44.25-44.25h4.25v-6.271
		c0-14.369,11.691-26.061,26.062-26.061h20.207c14.37,0,26.062,11.691,26.062,26.061v6.271h24.665v-6.271
		c0-14.369,11.691-26.061,26.062-26.061h20.208c14.37,0,26.062,11.691,26.062,26.061v6.271h4.249
		c24.396,0,44.247,19.849,44.251,44.246v177.832C637.797,660.463,617.948,680.314,593.548,680.314z"/>
	<path fill="#FFFFFF" d="M593.546,433.986h-24.249v-26.271c0-3.334-2.729-6.061-6.062-6.061h-20.208
		c-3.335,0-6.062,2.727-6.062,6.061v26.271H472.3v-26.271c0-3.334-2.728-6.061-6.062-6.061h-20.207
		c-3.335,0-6.062,2.727-6.062,6.061v26.271h-24.25c-13.388,0-24.25,10.861-24.25,24.25v177.828c0,13.387,10.862,24.25,24.25,24.25
		h177.829c13.388,0,24.249-10.863,24.249-24.25V458.236C617.795,444.848,606.933,433.986,593.546,433.986L593.546,433.986z
		 M590.514,636.064H418.748c-1.672-0.006-3.026-1.359-3.031-3.031V482.484h177.829v150.549
		C593.541,634.705,592.187,636.059,590.514,636.064L590.514,636.064z"/>
</g>
</svg>
