<?xml version="1.0" encoding="utf-8"?>
<!-- Generator: Adobe Illustrator 16.0.4, SVG Export Plug-In . SVG Version: 6.00 Build 0)  -->
<!DOCTYPE svg PUBLIC "-//W3C//DTD SVG 1.1//EN" "http://www.w3.org/Graphics/SVG/1.1/DTD/svg11.dtd">
<svg version="1.1" id="Ebene_1" xmlns="http://www.w3.org/2000/svg" xmlns:xlink="http://www.w3.org/1999/xlink" x="0px" y="0px"
	 width="680.314px" height="680.32px" viewBox="-42.518 80.785 680.314 680.32"
	 enable-background="new -42.518 80.785 680.314 680.32" xml:space="preserve">
<path d="M531.501,165.825h-63.779V96.73c0-8.77-7.175-15.945-15.945-15.945h-53.147c-8.771,0-15.945,7.175-15.945,15.945v69.095
	H212.6V96.73c0-8.77-7.177-15.945-15.944-15.945h-53.15c-8.77,0-15.943,7.175-15.943,15.945v69.095H63.78
	c-35.211,0-63.78,28.568-63.78,63.78v467.72c0,35.212,28.568,63.78,63.779,63.78h467.722c35.213,0,63.778-28.568,63.778-63.78
	v-467.72C595.28,194.393,566.714,165.825,531.501,165.825L531.501,165.825z M523.528,697.325H71.752
	c-4.385,0-7.973-3.588-7.973-7.975V293.385h467.722v395.969C531.501,693.737,527.912,697.325,523.528,697.325z"/>
<path d="M285.185,659.871c-91.705-132.945-108.728-146.59-108.728-195.449c0-66.926,54.254-121.181,121.182-121.181
	c66.927,0,121.182,54.254,121.182,121.181c0,48.859-17.021,62.504-108.728,195.449C304.075,668.564,291.203,668.562,285.185,659.871
	L285.185,659.871z M297.639,514.914c27.887,0,50.492-22.605,50.492-50.492c0-27.886-22.605-50.492-50.492-50.492
	s-50.492,22.606-50.492,50.492C247.147,492.309,269.754,514.914,297.639,514.914z"/>
</svg>
