<?xml version="1.0" encoding="utf-8"?>
<!-- Generator: Adobe Illustrator 16.0.4, SVG Export Plug-In . SVG Version: 6.00 Build 0)  -->
<!DOCTYPE svg PUBLIC "-//W3C//DTD SVG 1.1//EN" "http://www.w3.org/Graphics/SVG/1.1/DTD/svg11.dtd">
<svg version="1.1" id="Ebene_1" xmlns="http://www.w3.org/2000/svg" xmlns:xlink="http://www.w3.org/1999/xlink" x="0px" y="0px"
	 width="680.314px" height="680.314px" viewBox="-42.517 0 680.314 680.314" enable-background="new -42.517 0 680.314 680.314"
	 xml:space="preserve">
<g>
	<circle cx="60.159" cy="577.637" r="101.778"/>
	<path d="M394.186,679.415h-72.802c-12.745,0-23.433-9.83-24.261-22.548C286.067,487.132,150.302,351.704-19.072,340.671
		c-12.715-0.827-22.545-11.516-22.545-24.258v-72.804c0-13.856,11.594-24.971,25.431-24.225
		c234.398,12.667,421.944,200.452,434.598,434.598C419.156,667.819,408.043,679.415,394.186,679.415L394.186,679.415z"/>
	<path d="M612.642,679.415h-72.801c-13.063,0-23.697-10.352-24.23-23.404C503.742,366.506,271.337,134.06-18.211,122.188
		c-13.056-0.536-23.406-11.167-23.406-24.232v-72.8c0-13.685,11.318-24.732,24.993-24.24
		c355.858,12.775,640.793,299.376,653.505,653.505C637.372,668.096,626.324,679.415,612.642,679.415L612.642,679.415z"/>
</g>
<g>
	<path d="M593.548,680.314H415.719c-24.399,0-44.25-19.852-44.25-44.25V458.236c0-24.4,19.851-44.25,44.25-44.25h4.25v-6.271
		c0-14.369,11.691-26.061,26.062-26.061h20.207c14.37,0,26.062,11.691,26.062,26.061v6.271h24.665v-6.271
		c0-14.369,11.691-26.061,26.062-26.061h20.208c14.37,0,26.062,11.691,26.062,26.061v6.271h4.249
		c24.396,0,44.247,19.849,44.251,44.246v177.832C637.797,660.463,617.948,680.314,593.548,680.314z"/>
	<path fill="#FFFFFF" d="M593.546,433.986h-24.249v-26.271c0-3.334-2.729-6.061-6.062-6.061h-20.208
		c-3.335,0-6.062,2.727-6.062,6.061v26.271H472.3v-26.271c0-3.334-2.728-6.061-6.062-6.061h-20.207
		c-3.335,0-6.062,2.727-6.062,6.061v26.271h-24.25c-13.388,0-24.25,10.861-24.25,24.25v177.828c0,13.387,10.862,24.25,24.25,24.25
		h177.829c13.388,0,24.249-10.863,24.249-24.25V458.236C617.795,444.848,606.933,433.986,593.546,433.986L593.546,433.986z
		 M590.514,636.064H418.748c-1.672-0.006-3.026-1.359-3.031-3.031V482.484h177.829v150.549
		C593.541,634.705,592.187,636.059,590.514,636.064L590.514,636.064z"/>
</g>
</svg>
