<?xml version="1.0" encoding="utf-8"?>
<!-- Generator: Adobe Illustrator 16.0.4, SVG Export Plug-In . SVG Version: 6.00 Build 0)  -->
<!DOCTYPE svg PUBLIC "-//W3C//DTD SVG 1.1//EN" "http://www.w3.org/Graphics/SVG/1.1/DTD/svg11.dtd">
<svg version="1.1" id="Ebene_1" xmlns="http://www.w3.org/2000/svg" xmlns:xlink="http://www.w3.org/1999/xlink" x="0px" y="0px"
	 width="680.314px" height="680.32px" viewBox="-42.518 80.785 680.314 680.32"
	 enable-background="new -42.518 80.785 680.314 680.32" xml:space="preserve">
<path d="M297.64,420.945c93.942,0,170.08-76.138,170.08-170.08c0-93.943-76.138-170.08-170.08-170.08s-170.08,76.137-170.08,170.08
	C127.56,344.808,203.698,420.945,297.64,420.945z M416.696,463.465h-22.188c-29.499,13.554-62.318,21.26-96.866,21.26
	c-34.547,0-67.234-7.706-96.865-21.26h-22.19C79.99,463.465,0,543.456,0,642.049v55.276c0,35.212,28.568,63.78,63.779,63.78h467.722
	c35.213,0,63.778-28.568,63.778-63.78v-55.276C595.28,543.456,515.289,463.465,416.696,463.465L416.696,463.465z"/>
</svg>
